<svg xmlns="http://www.w3.org/2000/svg" width="27.475" height="26.1" viewBox="0 0 27.475 26.1">
  <path id="bx-like" d="M26.729,10.243h-7.71l1.543-4.626A2.749,2.749,0,0,0,17.953,2H15.738a1.378,1.378,0,0,0-1.056.5L8.225,10.243H4.748A2.75,2.75,0,0,0,2,12.991V25.355A2.75,2.75,0,0,0,4.748,28.1H23.029A2.761,2.761,0,0,0,25.6,26.32l3.788-10.1a1.373,1.373,0,0,0,.087-.482V12.991a2.75,2.75,0,0,0-2.746-2.748ZM4.748,12.991H7.5V25.355H4.748Zm21.981,2.5-3.7,9.866H10.243V12.114l6.138-7.367h1.574L15.81,11.181a1.374,1.374,0,0,0,1.3,1.809h9.617Z" transform="translate(-2 -2)" fill="#fff"/>
</svg>
