<svg xmlns="http://www.w3.org/2000/svg" xmlns:xlink="http://www.w3.org/1999/xlink" width="44.792" height="44.114" viewBox="0 0 44.792 44.114">
  <defs>
    <filter id="Icon_awesome-share-alt" x="1.69" y="0" width="43.102" height="44.114" filterUnits="userSpaceOnUse">
      <feOffset dy="2" input="SourceAlpha"/>
      <feGaussianBlur stdDeviation="6" result="blur"/>
      <feFlood flood-color="#16ddff" flood-opacity="0.349"/>
      <feComposite operator="in" in2="blur"/>
      <feComposite in="SourceGraphic"/>
    </filter>
  </defs>
  <g id="Group_1013" data-name="Group 1013" transform="translate(-771 -2256.083)">
    <path id="Path_291" data-name="Path 291" d="M5.2,10.4a6.26,6.26,0,0,0,6.4,6.4A6.26,6.26,0,0,0,18,10.4,6.26,6.26,0,0,0,11.6,4a6.26,6.26,0,0,0-6.4,6.4Zm9.6,0a3.061,3.061,0,0,1-3.2,3.2,3.061,3.061,0,0,1-3.2-3.2,3.061,3.061,0,0,1,3.2-3.2,3.061,3.061,0,0,1,3.2,3.2Zm-9.6,16A4.806,4.806,0,0,1,10,21.6h3.2A4.806,4.806,0,0,1,18,26.4V28h3.2V26.4a8.009,8.009,0,0,0-8-8H10a8.009,8.009,0,0,0-8,8V28H5.2Z" transform="translate(769 2259)" fill="#fff"/>
    <g transform="matrix(1, 0, 0, 1, 771, 2256.08)" filter="url(#Icon_awesome-share-alt)">
      <path id="Icon_awesome-share-alt-2" data-name="Icon awesome-share-alt" d="M5.58,5.073a1.515,1.515,0,0,0-.948.331L3.007,4.388a1.531,1.531,0,0,0,0-.661L4.632,2.712a1.519,1.519,0,1,0-.538-.86L2.47,2.868a1.522,1.522,0,1,0,0,2.381L4.094,6.264A1.522,1.522,0,1,0,5.58,5.073Z" transform="translate(19.69 16)" fill="#fff"/>
    </g>
  </g>
</svg>
