<svg xmlns="http://www.w3.org/2000/svg" width="29.092" height="31.5" viewBox="0 0 29.092 31.5">
  <path id="Icon_awesome-buffer" data-name="Icon awesome-buffer" d="M30.083,26.766,16.266,33.644a1.308,1.308,0,0,1-1.031,0L1.418,26.766c-.281-.141-.281-.371,0-.513l3.309-1.644a1.311,1.311,0,0,1,1.033,0l9.475,4.711a1.3,1.3,0,0,0,1.031,0l9.475-4.711a1.309,1.309,0,0,1,1.032,0l3.309,1.647C30.367,26.395,30.367,26.625,30.083,26.766Zm0-9.6-3.309-1.647a1.309,1.309,0,0,0-1.032,0l-9.475,4.717a1.313,1.313,0,0,1-1.031,0L5.759,15.519a1.311,1.311,0,0,0-1.033,0L1.417,17.166c-.281.141-.281.372,0,.514l13.817,6.877a1.308,1.308,0,0,0,1.031,0L30.082,17.68c.285-.142.285-.373,0-.514Zm-28.665-8,13.816,6.349a1.412,1.412,0,0,0,1.031,0L30.083,9.17c.281-.131.281-.344,0-.474L16.265,2.348a1.4,1.4,0,0,0-1.031,0L1.417,8.7c-.285.13-.285.343,0,.474Z" transform="translate(-1.204 -2.25)" fill="#fff"/>
</svg>
