<svg xmlns="http://www.w3.org/2000/svg" width="22.737" height="24" viewBox="0 0 22.737 24">
  <g id="bx-user" transform="translate(-3 -2)">
    <circle id="Ellipse_53" data-name="Ellipse 53" cx="3.5" cy="3.5" r="3.5" transform="translate(11 5)" fill="none"/>
    <path id="Path_276" data-name="Path 276" d="M14.368,2a6.316,6.316,0,1,0,6.316,6.316A6.316,6.316,0,0,0,14.368,2Zm0,10.1a3.789,3.789,0,1,1,3.789-3.789A3.789,3.789,0,0,1,14.368,12.1ZM25.737,26V24.737A8.853,8.853,0,0,0,16.895,15.9H11.842A8.853,8.853,0,0,0,3,24.737V26H5.526V24.737a6.323,6.323,0,0,1,6.316-6.316H16.9a6.323,6.323,0,0,1,6.316,6.316V26Z" fill="#fff"/>
  </g>
</svg>
