<svg xmlns="http://www.w3.org/2000/svg" width="34.78" height="33.39" viewBox="0 0 34.78 33.39">
  <path id="Path_11" data-name="Path 11" d="M27.963,20.609l-3.375-3.452c0-11.109-6.553-16.031-6.553-16.031s-6.616,4.922-6.616,16.031L8.044,20.609a.585.585,0,0,0-.155.5l1.294,7.861a.538.538,0,0,0,.83.38l4.718-3.192a5.367,5.367,0,0,0,3.312,1.406,5.076,5.076,0,0,0,3.241-1.406L26,29.348a.541.541,0,0,0,.83-.38l1.3-7.868A.625.625,0,0,0,27.963,20.609ZM18.035,13.5a2.252,2.252,0,1,1,2.159-2.25A2.2,2.2,0,0,1,18.035,13.5Z" transform="matrix(0.616, -0.788, 0.788, 0.616, -5.739, 21.477)" fill="#fff"/>
</svg>
